# xmcd
#
# Track frame offsets: 
#        150
#        14810
#        26196
#        38354
#        50119
#        63404
#        76217
#        89280
#        101531
#        115618
#        129634
#        160163
#        191384
#        205278
#        218685
#        232938
#        245966
#        257510
#        269243
#        279975
#
# Disc length: 3902 seconds
#
# Revision: 0
# Processed by: cddbd v1.5.2PL0 Copyright (c) Steve Scherf et al.
# Submitted via: ExactAudioCopy v0.99pb4
#
DISCID=1c0f3c14
DTITLE=Various Artist - Bottleneck Blues Wizards 2
DYEAR=2006
DGENRE=Blues
TTITLE0=Kokomo Arnold/The Twelves
TTITLE1=Kokomo Arnold/Busy Bootin'
TTITLE2=Robert Johnson/Come On In My Kitchen
TTITLE3=Robert Johnson/Cross Road Blues
TTITLE4=Robert Johnson/Preachin' Blues
TTITLE5=Bukka White/Fixin' To Die Blues
TTITLE6=Bukka White/Po' Boy
TTITLE7=Bukka White/District Attorney Blues
TTITLE8=Muddy Waters/I Be's Troubled
TTITLE9=Robert Lockwood/Little Boy Blues
TTITLE10=Son House/Walking Blues
TTITLE11=Son House/Government Fleet Blues
TTITLE12=Robert Nighthawk/Sweet Black Anglel
TTITLE13=Lightnin' Hopkins/Black Cat Bone
TTITLE14=Muddy Waters/Rollin' Stone
TTITLE15=Muddy Waters/Hoochie Coochie Man
TTITLE16=Johnny Shines/Ramblin'
TTITLE17=Elmore James/Rock My Baby Right
TTITLE18=Elmore James/Hawaiian Boogie
TTITLE19=Elmore James/Dust My Broom
EXTD=
EXTT0=
EXTT1=
EXTT2=
EXTT3=
EXTT4=
EXTT5=
EXTT6=
EXTT7=
EXTT8=
EXTT9=
EXTT10=
EXTT11=
EXTT12=
EXTT13=
EXTT14=
EXTT15=
EXTT16=
EXTT17=
EXTT18=
EXTT19=
PLAYORDER=
